<svg xmlns="http://www.w3.org/2000/svg" xmlns:xlink="http://www.w3.org/1999/xlink" width="1500" height="733.01"><rect width="1500" height="733.01" rx="5" ry="5" class="a"/><svg y="0%" x="0%"><circle cx="20" cy="20" r="6" fill="#ff5f58"/><circle cx="40" cy="20" r="6" fill="#ffbd2e"/><circle cx="60" cy="20" r="6" fill="#18c132"/></svg><svg height="673.01" viewBox="0 0 146 67.301" width="1460" x="15" xmlns="http://www.w3.org/2000/svg" xmlns:xlink="http://www.w3.org/1999/xlink" y="50"><style>@keyframes n{0%{transform:translateX(0)}5.2%{transform:translateX(-876px)}5.8%{transform:translateX(-1022px)}41.4%{transform:translateX(-1168px)}44.8%{transform:translateX(-1752px)}44.9%{transform:translateX(-2044px)}45%{transform:translateX(-2774px)}to{transform:translateX(-2920px)}}.a{fill:#282d35}.f,.g{white-space:pre}.f{fill:#a8cc8c;font-weight:700}.g{fill:#66c2cd}.g,.h,.i{font-weight:700}.h{fill:#71bef2;white-space:pre}.i{fill:#e88388}.i,.j,.k{white-space:pre}.j{fill:#dbab79;font-weight:700}.k{fill:#b9c0cb}</style><g font-family="Monaco,Consolas,Menlo,'Bitstream Vera Sans Mono','Powerline Symbols',monospace" font-size="1.67"><defs><symbol id="1"><text y="1.67" class="f">➜</text><text x="3.006" y="1.67" class="g">simtest</text></symbol><symbol id="2"><text y="1.67" class="f">➜</text><text x="3.006" y="1.67" class="g">simtest</text><text x="11.022" y="1.67" class="h">git:(</text><text x="16.032" y="1.67" class="i">main</text><text x="20.04" y="1.67" class="h">)</text><text x="22.044" y="1.67" class="j">✗</text></symbol><symbol id="3"><text y="1.67" class="f">➜</text><text x="3.006" y="1.67" class="g">simtest</text><text x="11.022" y="1.67" class="h">git:(</text><text x="16.032" y="1.67" class="i">main</text><text x="20.04" y="1.67" class="h">)</text><text x="22.044" y="1.67" class="j">✗</text><text x="24.048" y="1.67" class="k">cat</text><text x="28.056" y="1.67" class="k">simtest-report.md</text></symbol><symbol id="4"><text y="1.67" class="k">-</text><text x="2.004" y="1.67" class="k">✅</text><text x="4.008" y="1.67" class="k">Passed:</text><text x="12.024" y="1.67" class="k">10</text><text x="15.03" y="1.67" class="k">/</text><text x="17.034" y="1.67" class="k">10</text></symbol><symbol id="5"><text y="1.67" class="k">-</text><text x="2.004" y="1.67" class="k">📊</text><text x="5.01" y="1.67" class="k">Coverage:</text><text x="15.03" y="1.67" class="k">100.0%</text><text x="22.044" y="1.67" class="k">nodes</text><text x="28.056" y="1.67" class="k">/</text><text x="30.06" y="1.67" class="k">100.0%</text><text x="37.074" y="1.67" class="k">schemas</text></symbol><symbol id="6"><text y="1.67" class="k">-</text><text x="2.004" y="1.67" class="k">💰</text><text x="5.01" y="1.67" class="k">Cost:</text><text x="11.022" y="1.67" class="k">$0.0008</text></symbol><symbol id="7"><text y="1.67" class="k">-</text><text x="2.004" y="1.67" class="k">💸</text><text x="5.01" y="1.67" class="k">Cost</text><text x="10.02" y="1.67" class="k">Multiplier:</text><text x="22.044" y="1.67" class="k">1.0</text></symbol><symbol id="8"><text y="1.67" class="k">-</text><text x="2.004" y="1.67" class="k">🎯</text><text x="5.01" y="1.67" class="k">Noise</text><text x="11.022" y="1.67" class="k">Rate:</text><text x="17.034" y="1.67" class="k">0.00%</text></symbol><symbol id="9"><text y="1.67" class="k">-</text><text x="2.004" y="1.67" class="k">⏱️</text><text x="5.01" y="1.67" class="k">Runtime:</text><text x="14.028" y="1.67" class="k">0.34</text><text x="19.038" y="1.67" class="k">seconds</text></symbol><symbol id="10"><text y="1.67" class="k">##</text><text x="3.006" y="1.67" class="k">🔍</text><text x="6.012" y="1.67" class="k">Verdict</text><text x="14.028" y="1.67" class="k">Breakdown</text></symbol><symbol id="11"><text y="1.67" class="k">-</text><text x="2.004" y="1.67" class="k">PASS:</text><text x="8.016" y="1.67" class="k">10</text></symbol><symbol id="12"><text y="1.67" class="k">-</text><text x="2.004" y="1.67" class="k">FAIL_SCHEMA:</text><text x="15.03" y="1.67" class="k">0</text></symbol><symbol id="13"><text y="1.67" class="k">-</text><text x="2.004" y="1.67" class="k">FAIL_EXCEPTION:</text><text x="18.036" y="1.67" class="k">0</text></symbol><symbol id="14"><text y="1.67" class="k">-</text><text x="2.004" y="1.67" class="k">FAIL_POLICY:</text><text x="15.03" y="1.67" class="k">0</text></symbol><symbol id="15"><text y="1.67" class="k">-</text><text x="2.004" y="1.67" class="k">FAIL_COST_SPIKE:</text><text x="19.038" y="1.67" class="k">0</text></symbol><symbol id="16"><text y="1.67" class="k">##</text><text x="3.006" y="1.67" class="k">❌</text><text x="5.01" y="1.67" class="k">Failures</text></symbol><symbol id="17"><text y="1.67" class="k">|</text><text x="2.004" y="1.67" class="k">Seed</text><text x="7.014" y="1.67" class="k">|</text><text x="9.018" y="1.67" class="k">Verdict</text><text x="17.034" y="1.67" class="k">|</text><text x="19.038" y="1.67" class="k">Cost</text><text x="24.048" y="1.67" class="k">|</text><text x="26.052" y="1.67" class="k">Latency</text><text x="34.068" y="1.67" class="k">|</text><text x="36.072" y="1.67" class="k">Explanation</text><text x="48.096" y="1.67" class="k">|</text></symbol><symbol id="18"><text y="1.67" class="k">|------|---------|------|---------|-------------|</text></symbol><symbol id="19"><text y="1.67" class="k">_No</text><text x="4.008" y="1.67" class="k">failures_</text></symbol><symbol id="20"><text y="1.67" class="k">##</text><text x="3.006" y="1.67" class="k">🔥</text><text x="6.012" y="1.67" class="k">Top</text><text x="10.02" y="1.67" class="k">5</text><text x="12.024" y="1.67" class="k">Costliest</text><text x="22.044" y="1.67" class="k">Nodes</text></symbol><symbol id="21"><text y="1.67" class="k">|</text><text x="2.004" y="1.67" class="k">Node</text><text x="7.014" y="1.67" class="k">|</text><text x="9.018" y="1.67" class="k">Tool</text><text x="14.028" y="1.67" class="k">|</text><text x="16.032" y="1.67" class="k">Total</text><text x="22.044" y="1.67" class="k">Tokens</text><text x="29.058" y="1.67" class="k">|</text></symbol><symbol id="22"><text y="1.67" class="k">|------|------|---------------|</text></symbol><symbol id="23"><text y="1.67" class="k">|</text><text x="2.004" y="1.67" class="k">start</text><text x="8.016" y="1.67" class="k">|</text><text x="10.02" y="1.67" class="k">StartTool</text><text x="20.04" y="1.67" class="k">|</text><text x="22.044" y="1.67" class="k">112</text><text x="26.052" y="1.67" class="k">tokens</text><text x="33.066" y="1.67" class="k">|</text></symbol><symbol id="24"><text y="1.67" class="k">|</text><text x="2.004" y="1.67" class="k">analyze</text><text x="10.02" y="1.67" class="k">|</text><text x="12.024" y="1.67" class="k">AnalyzeTool</text><text x="24.048" y="1.67" class="k">|</text><text x="26.052" y="1.67" class="k">107</text><text x="30.06" y="1.67" class="k">tokens</text><text x="37.074" y="1.67" class="k">|</text></symbol><symbol id="25"><text y="1.67" class="k">|</text><text x="2.004" y="1.67" class="k">analyze</text><text x="10.02" y="1.67" class="k">|</text><text x="12.024" y="1.67" class="k">AnalyzeTool</text><text x="24.048" y="1.67" class="k">|</text><text x="26.052" y="1.67" class="k">98</text><text x="29.058" y="1.67" class="k">tokens</text><text x="36.072" y="1.67" class="k">|</text></symbol><symbol id="26"><text y="1.67" class="k">|</text><text x="2.004" y="1.67" class="k">start</text><text x="8.016" y="1.67" class="k">|</text><text x="10.02" y="1.67" class="k">StartTool</text><text x="20.04" y="1.67" class="k">|</text><text x="22.044" y="1.67" class="k">92</text><text x="25.05" y="1.67" class="k">tokens</text><text x="32.064" y="1.67" class="k">|</text></symbol><symbol id="27"><text y="1.67" class="k">|</text><text x="2.004" y="1.67" class="k">start</text><text x="8.016" y="1.67" class="k">|</text><text x="10.02" y="1.67" class="k">StartTool</text><text x="20.04" y="1.67" class="k">|</text><text x="22.044" y="1.67" class="k">80</text><text x="25.05" y="1.67" class="k">tokens</text><text x="32.064" y="1.67" class="k">|</text></symbol><symbol id="a"><path fill="transparent" d="M0 0h146v31H0z"/></symbol><symbol id="b"><path fill="#6f7683" d="M0 0h1.102v2.171H0z"/></symbol></defs><path class="a" d="M0 0h146v67.301H0z"/><g style="animation-duration:8.105428s;animation-iteration-count:infinite;animation-name:n;animation-timing-function:steps(1,end)"><svg width="3066"><svg><use xlink:href="#a"/><use xlink:href="#b" x="-.004"/></svg><svg x="146"><use xlink:href="#a"/><use xlink:href="#b" x="-.004"/></svg><svg x="292"><use xlink:href="#a"/><use xlink:href="#b" x="-.004"/></svg><svg x="438"><use xlink:href="#a"/><use xlink:href="#b" x="-.004"/></svg><svg x="584"><use xlink:href="#a"/><use xlink:href="#b" x="10.996"/><use xlink:href="#1"/></svg><svg x="730"><use xlink:href="#a"/><use xlink:href="#b" x="10.996"/><use xlink:href="#1"/></svg><svg x="876"><use xlink:href="#a"/><use xlink:href="#b" x="10.996"/><use xlink:href="#1"/></svg><svg x="1022"><use xlink:href="#a"/><use xlink:href="#b" x="23.996"/><use xlink:href="#2"/></svg><svg x="1168"><use xlink:href="#a"/><use xlink:href="#b" x="44.996"/><text y="1.67" class="f">➜</text><text x="3.006" y="1.67" class="g">simtest</text><text x="11.022" y="1.67" class="h">git:(</text><text x="16.032" y="1.67" class="i">main</text><text x="20.04" y="1.67" class="h">)</text><text x="22.044" y="1.67" class="j">✗</text><path fill="#b9c0cb" d="M24.048 0h21v2.171h-21z"/><text x="24.048" y="1.67" style="white-space:pre" fill="#282d35">cat simtest-report.md</text></svg><svg x="1314"><use xlink:href="#a"/><use xlink:href="#b" x="44.996"/><use xlink:href="#3"/></svg><svg x="1460"><use xlink:href="#a"/><use xlink:href="#b" x="44.996"/><use xlink:href="#3"/></svg><svg x="1606"><use xlink:href="#a"/><use xlink:href="#b" x="-.004" y="2.146"/><use xlink:href="#3"/></svg><svg x="1752"><use xlink:href="#a"/><use xlink:href="#b" x="-.004" y="2.146"/><use xlink:href="#3"/></svg><svg x="1898"><use xlink:href="#a"/><use xlink:href="#b" x="-.004" y="65.105"/><use xlink:href="#4"/><use xlink:href="#5" y="2.171"/><use xlink:href="#6" y="4.342"/><use xlink:href="#7" y="6.513"/><use xlink:href="#8" y="8.684"/><use xlink:href="#9" y="10.855"/><use xlink:href="#10" y="15.197"/><use xlink:href="#11" y="19.539"/><use xlink:href="#12" y="21.71"/><use xlink:href="#13" y="23.881"/><use xlink:href="#14" y="26.052"/><use xlink:href="#15" y="28.223"/><use xlink:href="#16" y="32.565"/><use xlink:href="#17" y="36.907"/><use xlink:href="#18" y="39.078"/><use xlink:href="#19" y="41.249"/><use xlink:href="#20" y="45.591"/><use xlink:href="#21" y="49.933"/><use xlink:href="#22" y="52.104"/><use xlink:href="#23" y="54.275"/><use xlink:href="#24" y="56.446"/><use xlink:href="#25" y="58.617"/><use xlink:href="#26" y="60.788"/><use xlink:href="#27" y="62.959"/></svg><svg x="2044"><use xlink:href="#a"/><use xlink:href="#b" x="-.004" y="65.105"/><use xlink:href="#4"/><use xlink:href="#5" y="2.171"/><use xlink:href="#6" y="4.342"/><use xlink:href="#7" y="6.513"/><use xlink:href="#8" y="8.684"/><use xlink:href="#9" y="10.855"/><use xlink:href="#10" y="15.197"/><use xlink:href="#11" y="19.539"/><use xlink:href="#12" y="21.71"/><use xlink:href="#13" y="23.881"/><use xlink:href="#14" y="26.052"/><use xlink:href="#15" y="28.223"/><use xlink:href="#16" y="32.565"/><use xlink:href="#17" y="36.907"/><use xlink:href="#18" y="39.078"/><use xlink:href="#19" y="41.249"/><use xlink:href="#20" y="45.591"/><use xlink:href="#21" y="49.933"/><use xlink:href="#22" y="52.104"/><use xlink:href="#23" y="54.275"/><use xlink:href="#24" y="56.446"/><use xlink:href="#25" y="58.617"/><use xlink:href="#26" y="60.788"/><use xlink:href="#27" y="62.959"/></svg><svg x="2190"><use xlink:href="#a"/><use xlink:href="#b" x="-.004" y="65.105"/><use xlink:href="#4"/><use xlink:href="#5" y="2.171"/><use xlink:href="#6" y="4.342"/><use xlink:href="#7" y="6.513"/><use xlink:href="#8" y="8.684"/><use xlink:href="#9" y="10.855"/><use xlink:href="#10" y="15.197"/><use xlink:href="#11" y="19.539"/><use xlink:href="#12" y="21.71"/><use xlink:href="#13" y="23.881"/><use xlink:href="#14" y="26.052"/><use xlink:href="#15" y="28.223"/><use xlink:href="#16" y="32.565"/><use xlink:href="#17" y="36.907"/><use xlink:href="#18" y="39.078"/><use xlink:href="#19" y="41.249"/><use xlink:href="#20" y="45.591"/><use xlink:href="#21" y="49.933"/><use xlink:href="#22" y="52.104"/><use xlink:href="#23" y="54.275"/><use xlink:href="#24" y="56.446"/><use xlink:href="#25" y="58.617"/><use xlink:href="#26" y="60.788"/><use xlink:href="#27" y="62.959"/></svg><svg x="2336"><use xlink:href="#a"/><use xlink:href="#b" x="-.004" y="65.105"/><use xlink:href="#4"/><use xlink:href="#5" y="2.171"/><use xlink:href="#6" y="4.342"/><use xlink:href="#7" y="6.513"/><use xlink:href="#8" y="8.684"/><use xlink:href="#9" y="10.855"/><use xlink:href="#10" y="15.197"/><use xlink:href="#11" y="19.539"/><use xlink:href="#12" y="21.71"/><use xlink:href="#13" y="23.881"/><use xlink:href="#14" y="26.052"/><use xlink:href="#15" y="28.223"/><use xlink:href="#16" y="32.565"/><use xlink:href="#17" y="36.907"/><use xlink:href="#18" y="39.078"/><use xlink:href="#19" y="41.249"/><use xlink:href="#20" y="45.591"/><use xlink:href="#21" y="49.933"/><use xlink:href="#22" y="52.104"/><use xlink:href="#23" y="54.275"/><use xlink:href="#24" y="56.446"/><use xlink:href="#25" y="58.617"/><use xlink:href="#26" y="60.788"/><use xlink:href="#27" y="62.959"/></svg><svg x="2482"><use xlink:href="#a"/><use xlink:href="#b" x="23.996" y="65.105"/><use xlink:href="#4"/><use xlink:href="#5" y="2.171"/><use xlink:href="#6" y="4.342"/><use xlink:href="#7" y="6.513"/><use xlink:href="#8" y="8.684"/><use xlink:href="#9" y="10.855"/><use xlink:href="#10" y="15.197"/><use xlink:href="#11" y="19.539"/><use xlink:href="#12" y="21.71"/><use xlink:href="#13" y="23.881"/><use xlink:href="#14" y="26.052"/><use xlink:href="#15" y="28.223"/><use xlink:href="#16" y="32.565"/><use xlink:href="#17" y="36.907"/><use xlink:href="#18" y="39.078"/><use xlink:href="#19" y="41.249"/><use xlink:href="#20" y="45.591"/><use xlink:href="#21" y="49.933"/><use xlink:href="#22" y="52.104"/><use xlink:href="#23" y="54.275"/><use xlink:href="#24" y="56.446"/><use xlink:href="#25" y="58.617"/><use xlink:href="#26" y="60.788"/><use xlink:href="#27" y="62.959"/><use xlink:href="#2" y="65.13"/></svg><svg x="2628"><use xlink:href="#a"/><use xlink:href="#b" x="23.996" y="65.105"/><use xlink:href="#4"/><use xlink:href="#5" y="2.171"/><use xlink:href="#6" y="4.342"/><use xlink:href="#7" y="6.513"/><use xlink:href="#8" y="8.684"/><use xlink:href="#9" y="10.855"/><use xlink:href="#10" y="15.197"/><use xlink:href="#11" y="19.539"/><use xlink:href="#12" y="21.71"/><use xlink:href="#13" y="23.881"/><use xlink:href="#14" y="26.052"/><use xlink:href="#15" y="28.223"/><use xlink:href="#16" y="32.565"/><use xlink:href="#17" y="36.907"/><use xlink:href="#18" y="39.078"/><use xlink:href="#19" y="41.249"/><use xlink:href="#20" y="45.591"/><use xlink:href="#21" y="49.933"/><use xlink:href="#22" y="52.104"/><use xlink:href="#23" y="54.275"/><use xlink:href="#24" y="56.446"/><use xlink:href="#25" y="58.617"/><use xlink:href="#26" y="60.788"/><use xlink:href="#27" y="62.959"/><use xlink:href="#2" y="65.13"/></svg><svg x="2774"><use xlink:href="#a"/><use xlink:href="#b" x="23.996" y="65.105"/><use xlink:href="#4"/><use xlink:href="#5" y="2.171"/><use xlink:href="#6" y="4.342"/><use xlink:href="#7" y="6.513"/><use xlink:href="#8" y="8.684"/><use xlink:href="#9" y="10.855"/><use xlink:href="#10" y="15.197"/><use xlink:href="#11" y="19.539"/><use xlink:href="#12" y="21.71"/><use xlink:href="#13" y="23.881"/><use xlink:href="#14" y="26.052"/><use xlink:href="#15" y="28.223"/><use xlink:href="#16" y="32.565"/><use xlink:href="#17" y="36.907"/><use xlink:href="#18" y="39.078"/><use xlink:href="#19" y="41.249"/><use xlink:href="#20" y="45.591"/><use xlink:href="#21" y="49.933"/><use xlink:href="#22" y="52.104"/><use xlink:href="#23" y="54.275"/><use xlink:href="#24" y="56.446"/><use xlink:href="#25" y="58.617"/><use xlink:href="#26" y="60.788"/><use xlink:href="#27" y="62.959"/><use xlink:href="#2" y="65.13"/></svg><svg x="2920"><use xlink:href="#a"/><use xlink:href="#b" x="-.004" y="65.105"/><use xlink:href="#5"/><use xlink:href="#6" y="2.171"/><use xlink:href="#7" y="4.342"/><use xlink:href="#8" y="6.513"/><use xlink:href="#9" y="8.684"/><use xlink:href="#10" y="13.026"/><use xlink:href="#11" y="17.368"/><use xlink:href="#12" y="19.539"/><use xlink:href="#13" y="21.71"/><use xlink:href="#14" y="23.881"/><use xlink:href="#15" y="26.052"/><use xlink:href="#16" y="30.394"/><use xlink:href="#17" y="34.736"/><use xlink:href="#18" y="36.907"/><use xlink:href="#19" y="39.078"/><use xlink:href="#20" y="43.42"/><use xlink:href="#21" y="47.762"/><use xlink:href="#22" y="49.933"/><use xlink:href="#23" y="52.104"/><use xlink:href="#24" y="54.275"/><use xlink:href="#25" y="56.446"/><use xlink:href="#26" y="58.617"/><use xlink:href="#27" y="60.788"/><use xlink:href="#2" y="62.959"/></svg></svg></g></g></svg></svg>